<svg width="19" height="19" viewBox="0 0 19 19" fill="none" xmlns="http://www.w3.org/2000/svg">
<path d="M9.4461 1.66012L11.104 4.97599C11.3434 5.45768 11.6964 5.8739 12.1326 6.18873C12.5687 6.50356 13.0749 6.70757 13.6075 6.78314L17.255 7.31368L14.5691 9.88347C14.1857 10.2595 13.8994 10.7231 13.7348 11.2342C13.5702 11.7454 13.5322 12.2889 13.6241 12.818L14.2541 16.4489L10.9382 14.791C10.4627 14.5412 9.93353 14.4107 9.39636 14.4107C8.85918 14.4107 8.33005 14.5412 7.85448 14.791L4.53861 16.4489L5.16863 12.8014C5.27041 12.2829 5.24677 11.7475 5.09969 11.2399C4.95261 10.7323 4.68634 10.2673 4.32308 9.88347L1.67039 7.31368L5.31784 6.78314C5.8445 6.70254 6.34398 6.49622 6.77399 6.18164C7.204 5.86707 7.55188 5.45352 7.78816 4.97599L9.4461 1.66012ZM9.4461 0.00218842C9.13819 0.00465592 8.83705 0.0928225 8.57643 0.256808C8.31581 0.420793 8.10601 0.654117 7.97054 0.930631L6.3126 4.2465C6.19265 4.48475 6.01698 4.69054 5.8005 4.8464C5.58403 5.00226 5.33315 5.10359 5.06915 5.14178L1.40512 5.67232C1.10147 5.71917 0.816816 5.84947 0.582917 6.04869C0.349018 6.24791 0.175076 6.5082 0.0805017 6.80052C-0.0140728 7.09284 -0.0255589 7.40569 0.0473244 7.70416C0.120208 8.00263 0.274593 8.27498 0.493254 8.49081L3.14595 11.0772C3.3349 11.2652 3.47575 11.4959 3.55656 11.7499C3.63737 12.0039 3.65576 12.2736 3.61017 12.5362L2.99673 16.1836C2.95529 16.4237 2.96727 16.67 3.03182 16.9049C3.09636 17.1398 3.21189 17.3576 3.37019 17.5428C3.52848 17.728 3.72565 17.8761 3.94766 17.9764C4.16966 18.0768 4.41106 18.127 4.65467 18.1234C4.92118 18.1194 5.18279 18.0511 5.41732 17.9245L8.73318 16.2665C8.96886 16.1444 9.23041 16.0807 9.49583 16.0807C9.76126 16.0807 10.0228 16.1444 10.2585 16.2665L13.5744 17.9245C13.8089 18.0511 14.0705 18.1194 14.337 18.1234C14.5806 18.127 14.822 18.0768 15.044 17.9764C15.266 17.8761 15.4632 17.728 15.6215 17.5428C15.7798 17.3576 15.8953 17.1398 15.9599 16.9049C16.0244 16.67 16.0364 16.4237 15.9949 16.1836L15.3815 12.5362C15.3359 12.2736 15.3543 12.0039 15.4351 11.7499C15.5159 11.4959 15.6568 11.2652 15.8457 11.0772L18.4984 8.49081C18.7171 8.27498 18.8715 8.00263 18.9443 7.70416C19.0172 7.40569 19.0057 7.09284 18.9112 6.80052C18.8166 6.5082 18.6427 6.24791 18.4088 6.04869C18.1749 5.84947 17.8902 5.71917 17.5866 5.67232L13.9225 5.14178C13.6585 5.10359 13.4076 5.00226 13.1912 4.8464C12.9747 4.69054 12.799 4.48475 12.6791 4.2465L11.0211 0.930631C10.8785 0.638509 10.6532 0.394753 10.3732 0.229678C10.0931 0.0646033 9.77074 -0.0145062 9.4461 0.00218842Z" fill="#F6B40A"/>
</svg>
